<mxfile host="app.diagrams.net" modified="2024-06-09T05:49:10.847Z" agent="Mozilla/5.0 (Macintosh; Intel Mac OS X 10_15_7) AppleWebKit/537.36 (KHTML, like Gecko) Chrome/125.0.0.0 Safari/537.36" version="24.3.1" etag="8EFmP9jHjQevVc-67S5e" type="github">
  <diagram name="第 1 页" id="7E6zgtTRfORUsUNrf-AW">
    <mxGraphModel>
      <root>
        <mxCell id="0" />
        <mxCell id="1" parent="0" />
      </root>
    </mxGraphModel>
  </diagram>
</mxfile>
